<svg xmlns="http://www.w3.org/2000/svg" width="18.343" height="16.13" viewBox="0 0 18.343 16.13">
  <g id="eye-off-svgrepo-com" transform="translate(-1.828 -4)" opacity="0.65">
    <path id="Path_3" data-name="Path 3" d="M8.586,4.716a8,8,0,0,1,8.97,1.627l3,3,.09.089a5.257,5.257,0,0,1,.971,1.156,3,3,0,0,1,0,2.818,5.255,5.255,0,0,1-.971,1.156l-.09.089-.052.052a1,1,0,1,1-1.414-1.414l.052-.052a4.7,4.7,0,0,0,.71-.771,1,1,0,0,0,0-.939,4.7,4.7,0,0,0-.71-.771l-3-3a6,6,0,0,0-6.728-1.22,1,1,0,0,1-.828-1.821Z" transform="translate(-2)" fill="#fff" fill-rule="evenodd"/>
    <path id="Path_4" data-name="Path 4" d="M2.328,4.516a.844.844,0,0,1,1.265-.175l16.23,14a1.075,1.075,0,0,1,.158,1.4.844.844,0,0,1-1.265.175l-2.67-2.3-.037.041a6.723,6.723,0,0,1-10.2,0L3.854,15.489a17.817,17.817,0,0,1-1.39-1.658A3.163,3.163,0,0,1,1.828,12a3.162,3.162,0,0,1,.636-1.831,17.8,17.8,0,0,1,1.39-1.658l.716-.794-2.084-1.8A1.075,1.075,0,0,1,2.328,4.516Zm9.355,9.336,1.523,1.314A3.372,3.372,0,0,1,11,16a3.819,3.819,0,0,1-3.607-4,4.362,4.362,0,0,1,.3-1.592l1.524,1.314A2.228,2.228,0,0,0,9.2,12,1.909,1.909,0,0,0,11,14,1.646,1.646,0,0,0,11.682,13.852Z" fill="#fff" fill-rule="evenodd"/>
  </g>
</svg>
