<svg xmlns="http://www.w3.org/2000/svg" width="20.142" height="16" viewBox="0 0 20.142 16">
  <g id="eye-svgrepo-com" transform="translate(-1.828 -4)" opacity="0.6">
    <path id="Path_1" data-name="Path 1" d="M8,12a4,4,0,1,1,4,4A4,4,0,0,1,8,12ZM6.242,6.343a8,8,0,0,1,11.314,0l2.168,2.168a18.4,18.4,0,0,1,1.541,1.658A2.971,2.971,0,0,1,21.97,12a2.971,2.971,0,0,1-.7,1.832,18.4,18.4,0,0,1-1.541,1.658l-2.168,2.168a8,8,0,0,1-11.314,0L4.074,15.489a18.4,18.4,0,0,1-1.541-1.658A2.971,2.971,0,0,1,1.828,12a2.971,2.971,0,0,1,.7-1.832A18.393,18.393,0,0,1,4.074,8.511l.047-.047Z" fill="#fff" fill-rule="evenodd"/>
    <path id="Path_2" data-name="Path 2" d="M12,10a2,2,0,1,0,2,2A2,2,0,0,0,12,10Z" fill="#fff" fill-rule="evenodd"/>
  </g>
</svg>
